<?xml version="1.0" standalone="no"?>
<!DOCTYPE svg PUBLIC "-//W3C//DTD SVG 20010904//EN"
 "http://www.w3.org/TR/2001/REC-SVG-20010904/DTD/svg10.dtd">
<svg version="1.0" xmlns="http://www.w3.org/2000/svg"
 width="200.000000pt" height="200.000000pt" viewBox="0 0 200.000000 200.000000"
 preserveAspectRatio="xMidYMid meet">

<g transform="translate(0.000000,200.000000) scale(0.100000,-0.100000)"
fill="#000000" stroke="none">
<path d="M858 1934 c-79 -19 -128 -45 -171 -93 -47 -52 -64 -86 -82 -166 -21
-90 -21 -293 1 -365 42 -141 128 -251 239 -306 53 -26 71 -29 150 -29 82 0 97
3 156 32 112 55 201 170 240 308 20 71 18 291 -4 375 -46 175 -181 262 -403
259 -38 0 -95 -7 -126 -15z m328 -99 c104 -54 144 -153 144 -357 0 -193 -85
-347 -227 -410 -56 -25 -168 -22 -225 6 -156 75 -238 270 -211 499 19 160 70
241 175 278 43 16 76 19 169 17 106 -3 120 -5 175 -33z"/>
<path d="M670 965 c-180 -50 -261 -97 -323 -187 -20 -29 -43 -78 -51 -108 -18
-64 -36 -250 -36 -364 l0 -79 40 -38 c53 -51 176 -123 195 -115 29 11 54 89
61 182 8 123 10 126 44 84 38 -46 53 -37 105 63 27 51 46 77 58 77 24 0 22
-12 -13 -73 -37 -66 -38 -99 -5 -121 14 -9 25 -24 25 -34 0 -10 5 -23 12 -30
6 -6 17 -27 23 -45 9 -28 9 -40 -2 -61 -11 -20 -11 -31 -2 -47 11 -22 12 -22
350 -17 l338 5 53 26 c69 34 174 111 189 138 13 26 13 134 -1 279 -15 146 -19
168 -47 227 -53 114 -161 186 -353 238 -108 29 -130 27 -203 -19 -45 -28 -58
-31 -126 -31 -68 1 -83 4 -144 38 -38 20 -76 37 -85 36 -9 0 -55 -11 -102 -24z
m174 -90 c62 -32 74 -35 156 -35 81 0 93 3 158 36 l70 36 83 -21 c159 -40 255
-100 297 -184 28 -56 38 -115 52 -297 l12 -145 -35 -30 c-19 -16 -61 -46 -93
-65 l-58 -35 -297 -3 -296 -3 -6 38 c-4 21 -16 56 -27 78 -11 21 -20 44 -20
49 0 5 -7 18 -16 28 -16 17 -15 22 10 77 34 76 25 120 -31 149 -54 29 -114 -3
-147 -77 -17 -37 -21 -39 -52 -34 -89 14 -117 -21 -124 -158 -3 -54 -9 -101
-12 -105 -8 -8 -96 47 -122 75 -16 18 -17 32 -6 173 21 283 54 351 212 423 49
22 184 63 214 64 6 1 41 -15 78 -34z"/>
</g>
</svg>
